<svg xmlns="http://www.w3.org/2000/svg" viewBox="0 0 380 212" width="380" height="212" fill="none" role="img" aria-label="Top languages">
<defs>
  <radialGradient id="washl" cx="0.1" cy="0.05" r="0.9">
    <stop offset="0%" stop-color="#7C3AED" stop-opacity="0.22"/>
    <stop offset="100%" stop-color="#7C3AED" stop-opacity="0"/>
  </radialGradient>
  <linearGradient id="ttll" x1="0" y1="0" x2="1" y2="0">
    <stop offset="0%" stop-color="#FFFFFF"/><stop offset="100%" stop-color="#C4B5FD"/>
  </linearGradient>
  <linearGradient id="ringl" x1="0" y1="0" x2="1" y2="1">
    <stop offset="0%" stop-color="#E879F9"/><stop offset="100%" stop-color="#7C3AED"/>
  </linearGradient>
  <linearGradient id="areal" x1="0" y1="0" x2="0" y2="1">
    <stop offset="0%" stop-color="#A855F7" stop-opacity="0.55"/>
    <stop offset="100%" stop-color="#A855F7" stop-opacity="0.02"/>
  </linearGradient>
  <linearGradient id="linel" x1="0" y1="0" x2="1" y2="0">
    <stop offset="0%" stop-color="#7C3AED"/><stop offset="55%" stop-color="#A855F7"/>
    <stop offset="100%" stop-color="#E879F9"/>
  </linearGradient>
  <filter id="gll" x="-70%" y="-70%" width="240%" height="240%">
    <feGaussianBlur stdDeviation="4"/>
  </filter>
</defs>
<rect x="0.5" y="0.5" width="379" height="211" rx="13" fill="#0D0718"/><rect x="0.5" y="0.5" width="379" height="211" rx="13" fill="url(#washl)"/><rect x="0.5" y="0.5" width="379" height="211" rx="13" fill="none" stroke="#2E1A47"/>
<g filter="url(#gll)"><g transform="translate(22.00,36.00)"><path d="M4.71 0.00V-8.81H0.30V-10.80H11.10V-8.81H6.70V0.00Z M15.88 0.00Q15.31 0.00 14.83 -0.28Q14.36 -0.56 14.08 -1.04Q13.79 -1.52 13.79 -2.09V-8.71Q13.79 -9.28 14.08 -9.76Q14.36 -10.24 14.83 -10.52Q15.31 -10.80 15.88 -10.80H22.51Q23.07 -10.80 23.55 -10.52Q24.02 -10.24 24.31 -9.76Q24.59 -9.28 24.59 -8.71V-2.09Q24.59 -1.52 24.31 -1.04Q24.02 -0.56 23.55 -0.28Q23.07 0.00 22.51 0.00ZM15.96 -1.99H22.41Q22.49 -1.99 22.54 -2.04Q22.59 -2.10 22.59 -2.17V-8.63Q22.59 -8.70 22.54 -8.76Q22.49 -8.81 22.41 -8.81H15.96Q15.88 -8.81 15.83 -8.76Q15.78 -8.70 15.78 -8.63V-2.17Q15.78 -2.10 15.83 -2.04Q15.88 -1.99 15.96 -1.99Z M27.84 0.00V-10.79H36.55Q37.12 -10.79 37.59 -10.50Q38.07 -10.22 38.36 -9.74Q38.64 -9.26 38.64 -8.70V-5.79Q38.64 -5.22 38.36 -4.74Q38.07 -4.27 37.59 -3.98Q37.12 -3.70 36.55 -3.70L29.83 -3.69V0.00ZM30.01 -5.69H36.46Q36.54 -5.69 36.59 -5.75Q36.64 -5.80 36.64 -5.87V-8.62Q36.64 -8.70 36.59 -8.75Q36.54 -8.80 36.46 -8.80H30.01Q29.93 -8.80 29.88 -8.75Q29.83 -8.70 29.83 -8.62V-5.87Q29.83 -5.80 29.88 -5.75Q29.93 -5.69 30.01 -5.69Z M47.51 0.00V-10.81H49.50V-1.99H58.31V0.00Z M60.81 0.00V-8.71Q60.81 -9.28 61.10 -9.76Q61.38 -10.24 61.85 -10.52Q62.33 -10.80 62.90 -10.80H69.52Q70.09 -10.80 70.56 -10.52Q71.04 -10.24 71.33 -9.76Q71.61 -9.28 71.61 -8.71V0.00H69.61V-3.62H62.80V0.00H60.81ZM62.80 -5.61H69.61V-8.63Q69.61 -8.70 69.56 -8.76Q69.51 -8.81 69.43 -8.81H62.98Q62.90 -8.81 62.85 -8.76Q62.80 -8.70 62.80 -8.63V-5.61Z M74.92 0.00V-10.80H77.10L83.72 -2.91V-10.80H85.72V0.00H83.55L76.91 -7.91V0.00Z M91.09 0.00Q90.52 0.00 90.04 -0.28Q89.57 -0.56 89.29 -1.04Q89.00 -1.52 89.00 -2.09V-8.71Q89.00 -9.28 89.29 -9.76Q89.57 -10.24 90.04 -10.52Q90.52 -10.80 91.09 -10.80H97.71Q98.28 -10.80 98.75 -10.52Q99.23 -10.24 99.52 -9.76Q99.80 -9.28 99.80 -8.71V-7.87H97.80V-8.63Q97.80 -8.70 97.75 -8.76Q97.70 -8.81 97.62 -8.81H91.17Q91.09 -8.81 91.04 -8.76Q90.99 -8.70 90.99 -8.63V-2.17Q90.99 -2.10 91.04 -2.04Q91.09 -1.99 91.17 -1.99H97.62Q97.70 -1.99 97.75 -2.04Q97.80 -2.10 97.80 -2.17V-4.12H95.36V-6.11H99.80V-2.09Q99.80 -1.52 99.52 -1.04Q99.23 -0.56 98.75 -0.28Q98.28 0.00 97.71 0.00Z M105.11 0.00Q104.54 0.00 104.06 -0.28Q103.59 -0.56 103.31 -1.04Q103.02 -1.52 103.02 -2.09V-10.80H105.01V-2.17Q105.01 -2.10 105.06 -2.04Q105.11 -1.99 105.19 -1.99H111.64Q111.72 -1.99 111.77 -2.04Q111.82 -2.10 111.82 -2.17V-10.80H113.82V-2.09Q113.82 -1.52 113.54 -1.04Q113.25 -0.56 112.78 -0.28Q112.30 0.00 111.74 0.00H105.11Z M117.10 0.00V-8.71Q117.10 -9.28 117.39 -9.76Q117.67 -10.24 118.14 -10.52Q118.62 -10.80 119.19 -10.80H125.81Q126.38 -10.80 126.85 -10.52Q127.33 -10.24 127.62 -9.76Q127.90 -9.28 127.90 -8.71V0.00H125.90V-3.62H119.09V0.00H117.10ZM119.09 -5.61H125.90V-8.63Q125.90 -8.70 125.85 -8.76Q125.80 -8.81 125.72 -8.81H119.27Q119.19 -8.81 119.14 -8.76Q119.09 -8.70 119.09 -8.63V-5.61Z M133.30 0.00Q132.73 0.00 132.25 -0.28Q131.78 -0.56 131.50 -1.04Q131.21 -1.52 131.21 -2.09V-8.71Q131.21 -9.28 131.50 -9.76Q131.78 -10.24 132.25 -10.52Q132.73 -10.80 133.30 -10.80H139.92Q140.49 -10.80 140.96 -10.52Q141.44 -10.24 141.73 -9.76Q142.01 -9.28 142.01 -8.71V-7.87H140.01V-8.63Q140.01 -8.70 139.96 -8.76Q139.91 -8.81 139.83 -8.81H133.38Q133.30 -8.81 133.25 -8.76Q133.20 -8.70 133.20 -8.63V-2.17Q133.20 -2.10 133.25 -2.04Q133.30 -1.99 133.38 -1.99H139.83Q139.91 -1.99 139.96 -2.04Q140.01 -2.10 140.01 -2.17V-4.12H137.57V-6.11H142.01V-2.09Q142.01 -1.52 141.73 -1.04Q141.44 -0.56 140.96 -0.28Q140.49 0.00 139.92 0.00Z M145.29 0.00V-10.80H155.23V-8.81H147.30V-6.40H153.68V-4.40H147.30V-1.99H155.23V0.00Z M160.40 0.00Q159.83 0.00 159.35 -0.28Q158.87 -0.56 158.59 -1.04Q158.31 -1.52 158.31 -2.09V-2.91H160.29V-2.17Q160.29 -2.10 160.34 -2.04Q160.40 -1.99 160.47 -1.99H166.93Q167.00 -1.99 167.06 -2.04Q167.11 -2.10 167.11 -2.17V-4.23Q167.11 -4.30 167.06 -4.35Q167.00 -4.40 166.93 -4.40H160.40Q159.83 -4.40 159.35 -4.69Q158.87 -4.97 158.59 -5.44Q158.31 -5.91 158.31 -6.49V-8.71Q158.31 -9.28 158.59 -9.76Q158.87 -10.24 159.35 -10.52Q159.83 -10.80 160.40 -10.80H167.02Q167.59 -10.80 168.06 -10.52Q168.54 -10.24 168.82 -9.76Q169.11 -9.28 169.11 -8.71V-7.89H167.11V-8.63Q167.11 -8.70 167.06 -8.76Q167.00 -8.81 166.93 -8.81H160.47Q160.40 -8.81 160.34 -8.76Q160.29 -8.70 160.29 -8.63V-6.57Q160.29 -6.50 160.34 -6.45Q160.40 -6.40 160.47 -6.40H167.02Q167.59 -6.40 168.06 -6.11Q168.54 -5.83 168.82 -5.36Q169.11 -4.89 169.11 -4.31V-2.09Q169.11 -1.52 168.82 -1.04Q168.54 -0.56 168.06 -0.28Q167.59 0.00 167.02 0.00Z" fill="#A855F7" fill-opacity="0.45"/></g></g><g transform="translate(22.00,36.00)"><path d="M4.71 0.00V-8.81H0.30V-10.80H11.10V-8.81H6.70V0.00Z M15.88 0.00Q15.31 0.00 14.83 -0.28Q14.36 -0.56 14.08 -1.04Q13.79 -1.52 13.79 -2.09V-8.71Q13.79 -9.28 14.08 -9.76Q14.36 -10.24 14.83 -10.52Q15.31 -10.80 15.88 -10.80H22.51Q23.07 -10.80 23.55 -10.52Q24.02 -10.24 24.31 -9.76Q24.59 -9.28 24.59 -8.71V-2.09Q24.59 -1.52 24.31 -1.04Q24.02 -0.56 23.55 -0.28Q23.07 0.00 22.51 0.00ZM15.96 -1.99H22.41Q22.49 -1.99 22.54 -2.04Q22.59 -2.10 22.59 -2.17V-8.63Q22.59 -8.70 22.54 -8.76Q22.49 -8.81 22.41 -8.81H15.96Q15.88 -8.81 15.83 -8.76Q15.78 -8.70 15.78 -8.63V-2.17Q15.78 -2.10 15.83 -2.04Q15.88 -1.99 15.96 -1.99Z M27.84 0.00V-10.79H36.55Q37.12 -10.79 37.59 -10.50Q38.07 -10.22 38.36 -9.74Q38.64 -9.26 38.64 -8.70V-5.79Q38.64 -5.22 38.36 -4.74Q38.07 -4.27 37.59 -3.98Q37.12 -3.70 36.55 -3.70L29.83 -3.69V0.00ZM30.01 -5.69H36.46Q36.54 -5.69 36.59 -5.75Q36.64 -5.80 36.64 -5.87V-8.62Q36.64 -8.70 36.59 -8.75Q36.54 -8.80 36.46 -8.80H30.01Q29.93 -8.80 29.88 -8.75Q29.83 -8.70 29.83 -8.62V-5.87Q29.83 -5.80 29.88 -5.75Q29.93 -5.69 30.01 -5.69Z M47.51 0.00V-10.81H49.50V-1.99H58.31V0.00Z M60.81 0.00V-8.71Q60.81 -9.28 61.10 -9.76Q61.38 -10.24 61.85 -10.52Q62.33 -10.80 62.90 -10.80H69.52Q70.09 -10.80 70.56 -10.52Q71.04 -10.24 71.33 -9.76Q71.61 -9.28 71.61 -8.71V0.00H69.61V-3.62H62.80V0.00H60.81ZM62.80 -5.61H69.61V-8.63Q69.61 -8.70 69.56 -8.76Q69.51 -8.81 69.43 -8.81H62.98Q62.90 -8.81 62.85 -8.76Q62.80 -8.70 62.80 -8.63V-5.61Z M74.92 0.00V-10.80H77.10L83.72 -2.91V-10.80H85.72V0.00H83.55L76.91 -7.91V0.00Z M91.09 0.00Q90.52 0.00 90.04 -0.28Q89.57 -0.56 89.29 -1.04Q89.00 -1.52 89.00 -2.09V-8.71Q89.00 -9.28 89.29 -9.76Q89.57 -10.24 90.04 -10.52Q90.52 -10.80 91.09 -10.80H97.71Q98.28 -10.80 98.75 -10.52Q99.23 -10.24 99.52 -9.76Q99.80 -9.28 99.80 -8.71V-7.87H97.80V-8.63Q97.80 -8.70 97.75 -8.76Q97.70 -8.81 97.62 -8.81H91.17Q91.09 -8.81 91.04 -8.76Q90.99 -8.70 90.99 -8.63V-2.17Q90.99 -2.10 91.04 -2.04Q91.09 -1.99 91.17 -1.99H97.62Q97.70 -1.99 97.75 -2.04Q97.80 -2.10 97.80 -2.17V-4.12H95.36V-6.11H99.80V-2.09Q99.80 -1.52 99.52 -1.04Q99.23 -0.56 98.75 -0.28Q98.28 0.00 97.71 0.00Z M105.11 0.00Q104.54 0.00 104.06 -0.28Q103.59 -0.56 103.31 -1.04Q103.02 -1.52 103.02 -2.09V-10.80H105.01V-2.17Q105.01 -2.10 105.06 -2.04Q105.11 -1.99 105.19 -1.99H111.64Q111.72 -1.99 111.77 -2.04Q111.82 -2.10 111.82 -2.17V-10.80H113.82V-2.09Q113.82 -1.52 113.54 -1.04Q113.25 -0.56 112.78 -0.28Q112.30 0.00 111.74 0.00H105.11Z M117.10 0.00V-8.71Q117.10 -9.28 117.39 -9.76Q117.67 -10.24 118.14 -10.52Q118.62 -10.80 119.19 -10.80H125.81Q126.38 -10.80 126.85 -10.52Q127.33 -10.24 127.62 -9.76Q127.90 -9.28 127.90 -8.71V0.00H125.90V-3.62H119.09V0.00H117.10ZM119.09 -5.61H125.90V-8.63Q125.90 -8.70 125.85 -8.76Q125.80 -8.81 125.72 -8.81H119.27Q119.19 -8.81 119.14 -8.76Q119.09 -8.70 119.09 -8.63V-5.61Z M133.30 0.00Q132.73 0.00 132.25 -0.28Q131.78 -0.56 131.50 -1.04Q131.21 -1.52 131.21 -2.09V-8.71Q131.21 -9.28 131.50 -9.76Q131.78 -10.24 132.25 -10.52Q132.73 -10.80 133.30 -10.80H139.92Q140.49 -10.80 140.96 -10.52Q141.44 -10.24 141.73 -9.76Q142.01 -9.28 142.01 -8.71V-7.87H140.01V-8.63Q140.01 -8.70 139.96 -8.76Q139.91 -8.81 139.83 -8.81H133.38Q133.30 -8.81 133.25 -8.76Q133.20 -8.70 133.20 -8.63V-2.17Q133.20 -2.10 133.25 -2.04Q133.30 -1.99 133.38 -1.99H139.83Q139.91 -1.99 139.96 -2.04Q140.01 -2.10 140.01 -2.17V-4.12H137.57V-6.11H142.01V-2.09Q142.01 -1.52 141.73 -1.04Q141.44 -0.56 140.96 -0.28Q140.49 0.00 139.92 0.00Z M145.29 0.00V-10.80H155.23V-8.81H147.30V-6.40H153.68V-4.40H147.30V-1.99H155.23V0.00Z M160.40 0.00Q159.83 0.00 159.35 -0.28Q158.87 -0.56 158.59 -1.04Q158.31 -1.52 158.31 -2.09V-2.91H160.29V-2.17Q160.29 -2.10 160.34 -2.04Q160.40 -1.99 160.47 -1.99H166.93Q167.00 -1.99 167.06 -2.04Q167.11 -2.10 167.11 -2.17V-4.23Q167.11 -4.30 167.06 -4.35Q167.00 -4.40 166.93 -4.40H160.40Q159.83 -4.40 159.35 -4.69Q158.87 -4.97 158.59 -5.44Q158.31 -5.91 158.31 -6.49V-8.71Q158.31 -9.28 158.59 -9.76Q158.87 -10.24 159.35 -10.52Q159.83 -10.80 160.40 -10.80H167.02Q167.59 -10.80 168.06 -10.52Q168.54 -10.24 168.82 -9.76Q169.11 -9.28 169.11 -8.71V-7.89H167.11V-8.63Q167.11 -8.70 167.06 -8.76Q167.00 -8.81 166.93 -8.81H160.47Q160.40 -8.81 160.34 -8.76Q160.29 -8.70 160.29 -8.63V-6.57Q160.29 -6.50 160.34 -6.45Q160.40 -6.40 160.47 -6.40H167.02Q167.59 -6.40 168.06 -6.11Q168.54 -5.83 168.82 -5.36Q169.11 -4.89 169.11 -4.31V-2.09Q169.11 -1.52 168.82 -1.04Q168.54 -0.56 168.06 -0.28Q167.59 0.00 167.02 0.00Z" fill="url(#ttll)"/></g>
<clipPath id="barclip"><rect x="22" y="56" width="336" height="11" rx="5.5"/></clipPath>
<g clip-path="url(#barclip)">
<rect x="22.00" y="56" width="104.64" height="11" fill="#3178c6"/>
<rect x="125.94" y="56" width="91.07" height="11" fill="#3572A5"/>
<rect x="216.31" y="56" width="61.47" height="11" fill="#A97BFF"/>
<rect x="277.07" y="56" width="36.50" height="11" fill="#7355dd"/>
<rect x="312.87" y="56" width="21.23" height="11" fill="#e34c26"/>
<rect x="333.40" y="56" width="13.39" height="11" fill="#663399"/>
<rect x="346.09" y="56" width="12.61" height="11" fill="#f1e05a"/>
<rect x="358.00" y="56" width="0.00" height="11" fill="#2E1A47"/>
</g>
<rect x="22" y="56" width="336" height="11" rx="5.5" fill="none" stroke="#0D0718" stroke-opacity="0.6"/>
<circle cx="27" cy="92" r="5" fill="#3178c6"/>
<g transform="translate(39.00,96.00)"><path d="M2.83 0.00V-7.26H0.58V-8.40H6.32V-7.26H4.07V0.00Z M8.87 2.07 9.79 -0.37 7.43 -6.33H8.80L10.12 -2.76Q10.20 -2.53 10.29 -2.21Q10.37 -1.89 10.42 -1.67Q10.46 -1.89 10.55 -2.21Q10.63 -2.53 10.71 -2.76L11.95 -6.33H13.27L10.19 2.07Z M14.77 2.07V-6.33H15.99V-5.12H16.26L15.99 -4.83Q15.99 -5.58 16.46 -6.01Q16.93 -6.44 17.71 -6.44Q18.67 -6.44 19.24 -5.80Q19.81 -5.16 19.81 -4.06V-2.28Q19.81 -1.55 19.55 -1.01Q19.29 -0.47 18.82 -0.18Q18.36 0.11 17.71 0.11Q16.94 0.11 16.47 -0.32Q15.99 -0.75 15.99 -1.50L16.26 -1.21H15.98L16.01 0.26V2.07ZM17.28 -0.96Q17.89 -0.96 18.23 -1.32Q18.57 -1.67 18.57 -2.33V-3.99Q18.57 -4.66 18.23 -5.01Q17.89 -5.36 17.28 -5.36Q16.70 -5.36 16.36 -5.00Q16.01 -4.64 16.01 -3.99V-2.33Q16.01 -1.69 16.36 -1.32Q16.70 -0.96 17.28 -0.96Z M24.15 0.11Q23.38 0.11 22.80 -0.19Q22.22 -0.49 21.91 -1.05Q21.59 -1.60 21.59 -2.33V-3.99Q21.59 -4.73 21.91 -5.28Q22.22 -5.83 22.80 -6.14Q23.38 -6.44 24.15 -6.44Q24.93 -6.44 25.50 -6.14Q26.08 -5.83 26.39 -5.28Q26.71 -4.73 26.71 -3.99V-2.86H22.79V-2.33Q22.79 -1.63 23.14 -1.26Q23.50 -0.89 24.16 -0.89Q24.70 -0.89 25.03 -1.08Q25.36 -1.27 25.44 -1.64H26.68Q26.54 -0.84 25.85 -0.36Q25.16 0.11 24.15 0.11ZM25.51 -3.61V-4.00Q25.51 -4.70 25.16 -5.07Q24.82 -5.45 24.15 -5.45Q23.49 -5.45 23.14 -5.07Q22.79 -4.69 22.79 -3.99V-3.71L25.60 -3.71Z M31.08 0.11Q30.24 0.11 29.63 -0.17Q29.01 -0.45 28.68 -0.98Q28.35 -1.50 28.34 -2.22H29.58Q29.58 -1.65 29.98 -1.32Q30.38 -0.99 31.09 -0.99Q31.76 -0.99 32.14 -1.31Q32.52 -1.63 32.52 -2.20Q32.52 -2.66 32.26 -3.01Q32.00 -3.35 31.52 -3.49L30.47 -3.80Q29.54 -4.06 29.04 -4.70Q28.54 -5.34 28.54 -6.22Q28.54 -6.92 28.85 -7.43Q29.17 -7.94 29.74 -8.23Q30.31 -8.52 31.09 -8.52Q32.25 -8.52 32.94 -7.90Q33.64 -7.27 33.64 -6.23H32.40Q32.40 -6.79 32.06 -7.10Q31.71 -7.42 31.08 -7.42Q30.46 -7.42 30.12 -7.12Q29.78 -6.83 29.78 -6.31Q29.78 -5.83 30.04 -5.49Q30.29 -5.15 30.77 -5.01L31.85 -4.69Q32.77 -4.43 33.26 -3.78Q33.76 -3.14 33.76 -2.24Q33.76 -1.54 33.42 -1.01Q33.09 -0.47 32.49 -0.18Q31.89 0.11 31.08 0.11Z M37.99 0.11Q37.21 0.11 36.62 -0.18Q36.03 -0.48 35.71 -1.03Q35.39 -1.58 35.39 -2.33V-3.99Q35.39 -4.75 35.71 -5.30Q36.03 -5.85 36.62 -6.14Q37.21 -6.44 37.99 -6.44Q39.13 -6.44 39.82 -5.84Q40.52 -5.24 40.55 -4.20H39.31Q39.28 -4.75 38.93 -5.05Q38.58 -5.35 37.99 -5.35Q37.36 -5.35 37.00 -5.00Q36.63 -4.65 36.63 -4.00V-2.33Q36.63 -1.69 37.00 -1.33Q37.36 -0.98 37.99 -0.98Q38.58 -0.98 38.93 -1.28Q39.28 -1.58 39.31 -2.12H40.55Q40.52 -1.09 39.82 -0.49Q39.13 0.11 37.99 0.11Z M42.58 0.00V-6.33H43.77V-5.12H44.07L43.69 -4.37Q43.69 -5.40 44.14 -5.92Q44.59 -6.44 45.47 -6.44Q46.49 -6.44 47.08 -5.81Q47.67 -5.18 47.67 -4.09V-3.67H46.39V-3.99Q46.39 -4.67 46.05 -5.03Q45.71 -5.40 45.10 -5.40Q44.50 -5.40 44.16 -5.03Q43.82 -4.66 43.82 -3.99V0.00Z M49.23 0.00V-1.13H51.45V-5.20H49.51V-6.33H52.66V-1.13H54.70V0.00ZM51.94 -7.42Q51.53 -7.42 51.30 -7.63Q51.06 -7.84 51.06 -8.20Q51.06 -8.56 51.30 -8.78Q51.53 -8.99 51.94 -8.99Q52.35 -8.99 52.58 -8.78Q52.82 -8.56 52.82 -8.20Q52.82 -7.84 52.58 -7.63Q52.35 -7.42 51.94 -7.42Z M56.17 2.07V-6.33H57.39V-5.12H57.66L57.39 -4.83Q57.39 -5.58 57.86 -6.01Q58.33 -6.44 59.11 -6.44Q60.07 -6.44 60.64 -5.80Q61.21 -5.16 61.21 -4.06V-2.28Q61.21 -1.55 60.95 -1.01Q60.69 -0.47 60.22 -0.18Q59.76 0.11 59.11 0.11Q58.34 0.11 57.87 -0.32Q57.39 -0.75 57.39 -1.50L57.66 -1.21H57.38L57.41 0.26V2.07ZM58.68 -0.96Q59.29 -0.96 59.63 -1.32Q59.97 -1.67 59.97 -2.33V-3.99Q59.97 -4.66 59.63 -5.01Q59.29 -5.36 58.68 -5.36Q58.10 -5.36 57.76 -5.00Q57.41 -4.64 57.41 -3.99V-2.33Q57.41 -1.69 57.76 -1.32Q58.10 -0.96 58.68 -0.96Z M66.24 0.00Q65.38 0.00 64.90 -0.47Q64.41 -0.94 64.41 -1.79V-5.20H62.66V-6.33H64.41V-8.11H65.65V-6.33H68.13V-5.20H65.65V-1.79Q65.65 -1.13 66.29 -1.13H68.02V0.00Z" fill="#C4B5FD" fill-opacity="0.92"/></g>
<g transform="translate(139.38,96.00)"><path d="M1.97 0.00Q1.58 0.00 1.26 -0.19Q0.94 -0.39 0.75 -0.70Q0.56 -1.02 0.56 -1.40V-1.79H1.82V-1.45Q1.82 -1.37 1.87 -1.31Q1.93 -1.25 2.01 -1.25H6.64Q6.72 -1.25 6.77 -1.31Q6.83 -1.37 6.83 -1.45V-3.01Q6.83 -3.09 6.77 -3.15Q6.72 -3.21 6.64 -3.21H1.89V-4.46H6.33Q6.41 -4.46 6.46 -4.52Q6.52 -4.57 6.52 -4.65V-6.11Q6.52 -6.19 6.46 -6.25Q6.41 -6.31 6.33 -6.31H2.01Q1.93 -6.31 1.87 -6.25Q1.82 -6.19 1.82 -6.11V-5.67H0.56V-6.16Q0.56 -6.55 0.75 -6.87Q0.94 -7.18 1.26 -7.37Q1.58 -7.56 1.97 -7.56H6.37Q6.77 -7.56 7.08 -7.38Q7.40 -7.19 7.59 -6.87Q7.78 -6.55 7.78 -6.16V-4.61Q7.78 -4.48 7.75 -4.34Q7.72 -4.21 7.68 -4.10Q7.89 -3.88 7.99 -3.60Q8.08 -3.33 8.08 -3.06V-1.40Q8.08 -1.02 7.89 -0.70Q7.70 -0.39 7.38 -0.19Q7.06 0.00 6.68 0.00H1.97Z M10.68 0.00Q10.29 0.00 9.97 -0.21Q9.65 -0.41 9.46 -0.75Q9.27 -1.08 9.27 -1.46V-6.13Q9.27 -6.52 9.46 -6.84Q9.65 -7.17 9.97 -7.36Q10.29 -7.56 10.68 -7.56H15.39Q15.77 -7.56 16.09 -7.36Q16.41 -7.17 16.60 -6.84Q16.79 -6.52 16.79 -6.13V-1.46Q16.79 -1.08 16.60 -0.75Q16.41 -0.41 16.09 -0.21Q15.77 0.00 15.39 0.00H10.68ZM11.03 -1.31H15.35Q15.43 -1.31 15.48 -1.37Q15.54 -1.42 15.54 -1.50V-5.06ZM10.53 -2.53 15.03 -6.28H10.72Q10.64 -6.28 10.58 -6.22Q10.53 -6.16 10.53 -6.09Z M18.00 0.00V-1.25H19.25V0.00Z M21.75 0.00Q21.42 0.00 21.13 -0.17Q20.84 -0.33 20.64 -0.61Q20.43 -0.90 20.35 -1.25H26.41Q26.49 -1.25 26.55 -1.31Q26.61 -1.37 26.61 -1.45V-2.88Q26.61 -2.96 26.55 -3.01Q26.49 -3.07 26.41 -3.07H21.75Q21.35 -3.07 21.04 -3.26Q20.72 -3.45 20.53 -3.77Q20.33 -4.09 20.33 -4.48V-6.16Q20.33 -6.55 20.53 -6.87Q20.72 -7.18 21.04 -7.37Q21.36 -7.56 21.75 -7.56H26.46Q26.84 -7.56 27.16 -7.38Q27.48 -7.19 27.67 -6.87Q27.86 -6.55 27.86 -6.16V-1.40Q27.86 -1.02 27.67 -0.70Q27.48 -0.39 27.16 -0.19Q26.84 0.00 26.46 0.00H21.75ZM21.79 -4.33H26.61V-6.11Q26.61 -6.19 26.55 -6.25Q26.49 -6.31 26.41 -6.31H21.79Q21.71 -6.31 21.66 -6.25Q21.60 -6.19 21.60 -6.11V-4.52Q21.60 -4.44 21.66 -4.39Q21.71 -4.33 21.79 -4.33Z M29.90 0.00V-1.41L37.08 -7.51L37.43 -7.56V-6.16L30.26 -0.07ZM30.34 -3.99Q29.95 -3.99 29.64 -4.17Q29.34 -4.35 29.16 -4.66Q28.98 -4.96 28.98 -5.35V-6.16Q28.98 -6.55 29.16 -6.86Q29.34 -7.16 29.64 -7.34Q29.95 -7.52 30.34 -7.52H31.25Q31.64 -7.52 31.95 -7.34Q32.25 -7.16 32.43 -6.86Q32.61 -6.55 32.61 -6.16V-5.35Q32.61 -4.96 32.43 -4.66Q32.25 -4.35 31.95 -4.17Q31.64 -3.99 31.25 -3.99H30.34ZM30.16 -4.99H31.43Q31.51 -4.99 31.56 -5.05Q31.61 -5.10 31.61 -5.18V-6.33Q31.61 -6.41 31.56 -6.46Q31.51 -6.52 31.43 -6.52H30.16Q30.08 -6.52 30.03 -6.46Q29.97 -6.41 29.97 -6.33V-5.18Q29.97 -5.10 30.03 -5.05Q30.08 -4.99 30.16 -4.99ZM35.86 -0.04Q35.48 -0.04 35.17 -0.22Q34.87 -0.40 34.69 -0.71Q34.51 -1.01 34.51 -1.40V-2.22Q34.51 -2.60 34.69 -2.91Q34.87 -3.21 35.17 -3.39Q35.48 -3.57 35.86 -3.57H36.78Q37.17 -3.57 37.47 -3.39Q37.78 -3.21 37.96 -2.91Q38.13 -2.60 38.13 -2.22V-1.40Q38.13 -1.01 37.96 -0.71Q37.78 -0.40 37.47 -0.22Q37.17 -0.04 36.78 -0.04H35.86ZM35.69 -1.04H36.96Q37.03 -1.04 37.09 -1.09Q37.14 -1.14 37.14 -1.22V-2.39Q37.14 -2.47 37.09 -2.52Q37.03 -2.57 36.96 -2.57H35.69Q35.61 -2.57 35.56 -2.52Q35.51 -2.47 35.51 -2.39V-1.22Q35.51 -1.14 35.56 -1.09Q35.61 -1.04 35.69 -1.04Z" fill="#E879F9"/></g>
<circle cx="205" cy="92" r="5" fill="#3572A5"/>
<g transform="translate(217.00,96.00)"><path d="M0.97 0.00V-8.39H3.72Q4.53 -8.39 5.13 -8.08Q5.73 -7.77 6.06 -7.20Q6.39 -6.64 6.39 -5.86Q6.39 -5.10 6.06 -4.53Q5.73 -3.96 5.13 -3.65Q4.53 -3.33 3.72 -3.33H2.21V0.00ZM2.21 -4.45H3.72Q4.36 -4.45 4.74 -4.84Q5.13 -5.22 5.13 -5.86Q5.13 -6.51 4.74 -6.90Q4.36 -7.28 3.72 -7.28H2.21Z M8.87 2.07 9.79 -0.37 7.43 -6.33H8.80L10.12 -2.76Q10.20 -2.53 10.29 -2.21Q10.37 -1.89 10.42 -1.67Q10.46 -1.89 10.55 -2.21Q10.63 -2.53 10.71 -2.76L11.95 -6.33H13.27L10.19 2.07Z M17.94 0.00Q17.08 0.00 16.60 -0.47Q16.11 -0.94 16.11 -1.79V-5.20H14.36V-6.33H16.11V-8.11H17.35V-6.33H19.83V-5.20H17.35V-1.79Q17.35 -1.13 17.99 -1.13H19.72V0.00Z M21.67 0.00V-8.39H22.91V-6.33L22.89 -5.12H23.20L22.89 -4.83Q22.89 -5.59 23.34 -6.02Q23.80 -6.44 24.59 -6.44Q25.53 -6.44 26.09 -5.84Q26.65 -5.23 26.65 -4.20V0.00H25.41V-4.07Q25.41 -4.69 25.08 -5.04Q24.75 -5.38 24.17 -5.38Q23.59 -5.38 23.25 -5.02Q22.91 -4.65 22.91 -3.99V0.00Z M31.05 0.10Q30.27 0.10 29.69 -0.20Q29.12 -0.49 28.81 -1.05Q28.49 -1.60 28.49 -2.35V-3.97Q28.49 -4.73 28.81 -5.28Q29.12 -5.83 29.69 -6.13Q30.27 -6.42 31.05 -6.42Q31.84 -6.42 32.41 -6.13Q32.98 -5.83 33.29 -5.28Q33.61 -4.73 33.61 -3.98V-2.35Q33.61 -1.60 33.29 -1.05Q32.98 -0.49 32.41 -0.20Q31.84 0.10 31.05 0.10ZM31.05 -0.99Q31.68 -0.99 32.02 -1.34Q32.37 -1.69 32.37 -2.35V-3.97Q32.37 -4.64 32.02 -4.99Q31.68 -5.33 31.05 -5.33Q30.43 -5.33 30.08 -4.99Q29.73 -4.64 29.73 -3.97V-2.35Q29.73 -1.69 30.08 -1.34Q30.43 -0.99 31.05 -0.99Z M35.47 0.00V-6.33H36.69V-5.12H37.00L36.69 -4.83Q36.69 -5.59 37.14 -6.02Q37.60 -6.44 38.39 -6.44Q39.33 -6.44 39.89 -5.84Q40.45 -5.23 40.45 -4.20V0.00H39.21V-4.07Q39.21 -4.69 38.88 -5.03Q38.55 -5.36 37.97 -5.36Q37.39 -5.36 37.05 -5.01Q36.71 -4.65 36.71 -3.99V0.00Z" fill="#C4B5FD" fill-opacity="0.92"/></g>
<g transform="translate(317.49,96.00)"><path d="M0.60 0.00V-2.88Q0.60 -3.28 0.79 -3.60Q0.98 -3.91 1.30 -4.10Q1.61 -4.29 2.01 -4.29H6.67Q6.75 -4.29 6.81 -4.35Q6.87 -4.40 6.87 -4.48V-6.11Q6.87 -6.19 6.81 -6.25Q6.75 -6.31 6.67 -6.31H2.05Q1.97 -6.31 1.91 -6.25Q1.85 -6.19 1.85 -6.11V-5.65H0.60V-6.16Q0.60 -6.55 0.79 -6.87Q0.98 -7.19 1.30 -7.38Q1.61 -7.56 2.01 -7.56H6.71Q7.10 -7.56 7.42 -7.37Q7.74 -7.18 7.93 -6.87Q8.12 -6.55 8.12 -6.16V-4.44Q8.12 -4.05 7.93 -3.73Q7.74 -3.41 7.42 -3.22Q7.10 -3.03 6.71 -3.03H2.05Q1.97 -3.03 1.91 -2.97Q1.85 -2.91 1.85 -2.83V-1.45Q1.85 -1.37 1.91 -1.31Q1.97 -1.25 2.05 -1.25H8.12V0.00Z M10.72 0.00Q10.33 0.00 10.01 -0.19Q9.69 -0.39 9.50 -0.70Q9.31 -1.02 9.31 -1.40V-6.16Q9.31 -6.55 9.50 -6.87Q9.69 -7.19 10.01 -7.38Q10.33 -7.56 10.72 -7.56H15.61V-6.31H10.76Q10.68 -6.31 10.62 -6.25Q10.57 -6.19 10.57 -6.11V-4.71Q10.57 -4.63 10.62 -4.57Q10.68 -4.51 10.76 -4.51H15.43Q15.81 -4.51 16.13 -4.32Q16.45 -4.13 16.64 -3.81Q16.84 -3.49 16.84 -3.10V-1.40Q16.84 -1.02 16.64 -0.70Q16.45 -0.39 16.13 -0.19Q15.81 0.00 15.43 0.00H10.72ZM10.76 -1.25H15.39Q15.47 -1.25 15.53 -1.31Q15.58 -1.37 15.58 -1.45V-3.05Q15.58 -3.13 15.53 -3.19Q15.47 -3.25 15.39 -3.25H10.57V-1.45Q10.57 -1.37 10.62 -1.31Q10.68 -1.25 10.76 -1.25Z M17.89 0.00V-1.25H19.15V0.00Z M21.64 0.00Q21.31 0.00 21.03 -0.17Q20.74 -0.33 20.53 -0.61Q20.33 -0.90 20.25 -1.25H26.31Q26.39 -1.25 26.45 -1.31Q26.50 -1.37 26.50 -1.45V-2.88Q26.50 -2.96 26.45 -3.01Q26.39 -3.07 26.31 -3.07H21.64Q21.25 -3.07 20.93 -3.26Q20.61 -3.45 20.42 -3.77Q20.23 -4.09 20.23 -4.48V-6.16Q20.23 -6.55 20.42 -6.87Q20.61 -7.18 20.93 -7.37Q21.25 -7.56 21.64 -7.56H26.35Q26.74 -7.56 27.06 -7.38Q27.38 -7.19 27.57 -6.87Q27.76 -6.55 27.76 -6.16V-1.40Q27.76 -1.02 27.57 -0.70Q27.38 -0.39 27.06 -0.19Q26.74 0.00 26.35 0.00H21.64ZM21.69 -4.33H26.50V-6.11Q26.50 -6.19 26.45 -6.25Q26.39 -6.31 26.31 -6.31H21.69Q21.61 -6.31 21.55 -6.25Q21.49 -6.19 21.49 -6.11V-4.52Q21.49 -4.44 21.55 -4.39Q21.61 -4.33 21.69 -4.33Z M29.79 0.00V-1.41L36.98 -7.51L37.32 -7.56V-6.16L30.16 -0.07ZM30.23 -3.99Q29.84 -3.99 29.54 -4.17Q29.23 -4.35 29.05 -4.66Q28.88 -4.96 28.88 -5.35V-6.16Q28.88 -6.55 29.05 -6.86Q29.23 -7.16 29.54 -7.34Q29.84 -7.52 30.23 -7.52H31.15Q31.54 -7.52 31.84 -7.34Q32.15 -7.16 32.33 -6.86Q32.51 -6.55 32.51 -6.16V-5.35Q32.51 -4.96 32.33 -4.66Q32.15 -4.35 31.84 -4.17Q31.54 -3.99 31.15 -3.99H30.23ZM30.05 -4.99H31.32Q31.40 -4.99 31.45 -5.05Q31.51 -5.10 31.51 -5.18V-6.33Q31.51 -6.41 31.45 -6.46Q31.40 -6.52 31.32 -6.52H30.05Q29.97 -6.52 29.92 -6.46Q29.87 -6.41 29.87 -6.33V-5.18Q29.87 -5.10 29.92 -5.05Q29.97 -4.99 30.05 -4.99ZM35.76 -0.04Q35.37 -0.04 35.07 -0.22Q34.76 -0.40 34.58 -0.71Q34.41 -1.01 34.41 -1.40V-2.22Q34.41 -2.60 34.58 -2.91Q34.76 -3.21 35.07 -3.39Q35.37 -3.57 35.76 -3.57H36.68Q37.06 -3.57 37.37 -3.39Q37.67 -3.21 37.85 -2.91Q38.03 -2.60 38.03 -2.22V-1.40Q38.03 -1.01 37.85 -0.71Q37.67 -0.40 37.37 -0.22Q37.06 -0.04 36.68 -0.04H35.76ZM35.59 -1.04H36.85Q36.93 -1.04 36.98 -1.09Q37.04 -1.14 37.04 -1.22V-2.39Q37.04 -2.47 36.98 -2.52Q36.93 -2.57 36.85 -2.57H35.59Q35.51 -2.57 35.46 -2.52Q35.40 -2.47 35.40 -2.39V-1.22Q35.40 -1.14 35.46 -1.09Q35.51 -1.04 35.59 -1.04Z" fill="#E879F9"/></g>
<circle cx="27" cy="117" r="5" fill="#A97BFF"/>
<g transform="translate(39.00,121.00)"><path d="M0.96 0.00V-8.39H2.21V-4.90H3.32L5.04 -8.39H6.39L4.42 -4.37L6.49 0.00H5.09L3.30 -3.79H2.21V0.00Z M10.35 0.10Q9.57 0.10 8.99 -0.20Q8.42 -0.49 8.11 -1.05Q7.79 -1.60 7.79 -2.35V-3.97Q7.79 -4.73 8.11 -5.28Q8.42 -5.83 8.99 -6.13Q9.57 -6.42 10.35 -6.42Q11.14 -6.42 11.71 -6.13Q12.28 -5.83 12.59 -5.28Q12.91 -4.73 12.91 -3.98V-2.35Q12.91 -1.60 12.59 -1.05Q12.28 -0.49 11.71 -0.20Q11.14 0.10 10.35 0.10ZM10.35 -0.99Q10.98 -0.99 11.32 -1.34Q11.67 -1.69 11.67 -2.35V-3.97Q11.67 -4.64 11.32 -4.99Q10.98 -5.33 10.35 -5.33Q9.73 -5.33 9.38 -4.99Q9.03 -4.64 9.03 -3.97V-2.35Q9.03 -1.69 9.38 -1.34Q9.73 -0.99 10.35 -0.99Z M17.94 0.00Q17.08 0.00 16.60 -0.47Q16.11 -0.94 16.11 -1.79V-5.20H14.36V-6.33H16.11V-8.11H17.35V-6.33H19.83V-5.20H17.35V-1.79Q17.35 -1.13 17.99 -1.13H19.72V0.00Z M25.06 0.00Q24.48 0.00 24.04 -0.24Q23.59 -0.47 23.35 -0.91Q23.10 -1.34 23.10 -1.92V-7.27H21.03V-8.39H24.35V-1.92Q24.35 -1.55 24.56 -1.34Q24.77 -1.13 25.12 -1.13H27.08V0.00Z M28.53 0.00V-1.13H30.75V-5.20H28.81V-6.33H31.96V-1.13H34.00V0.00ZM31.24 -7.42Q30.83 -7.42 30.60 -7.63Q30.36 -7.84 30.36 -8.20Q30.36 -8.56 30.60 -8.78Q30.83 -8.99 31.24 -8.99Q31.65 -8.99 31.88 -8.78Q32.12 -8.56 32.12 -8.20Q32.12 -7.84 31.88 -7.63Q31.65 -7.42 31.24 -7.42Z M35.47 0.00V-6.33H36.69V-5.12H37.00L36.69 -4.83Q36.69 -5.59 37.14 -6.02Q37.60 -6.44 38.39 -6.44Q39.33 -6.44 39.89 -5.84Q40.45 -5.23 40.45 -4.20V0.00H39.21V-4.07Q39.21 -4.69 38.88 -5.03Q38.55 -5.36 37.97 -5.36Q37.39 -5.36 37.05 -5.01Q36.71 -4.65 36.71 -3.99V0.00Z" fill="#C4B5FD" fill-opacity="0.92"/></g>
<g transform="translate(148.54,121.00)"><path d="M2.40 0.00V-5.81L1.67 -4.93H0.01L2.22 -7.56H3.66V0.00Z M6.11 0.00Q5.72 0.00 5.40 -0.19Q5.08 -0.39 4.89 -0.70Q4.70 -1.02 4.70 -1.40V-3.09Q4.70 -3.28 4.77 -3.48Q4.84 -3.68 4.95 -3.86Q4.84 -4.05 4.77 -4.25Q4.70 -4.45 4.70 -4.65V-6.16Q4.70 -6.55 4.89 -6.87Q5.08 -7.19 5.40 -7.38Q5.72 -7.56 6.11 -7.56H10.82Q11.15 -7.56 11.45 -7.41Q11.74 -7.25 11.95 -6.98Q12.16 -6.72 12.23 -6.40V-4.65Q12.23 -4.25 11.98 -3.86Q12.23 -3.50 12.23 -3.09V-1.40Q12.23 -1.02 12.03 -0.70Q11.84 -0.39 11.52 -0.19Q11.20 0.00 10.82 0.00H6.11ZM6.15 -1.25H10.78Q10.86 -1.25 10.92 -1.31Q10.97 -1.37 10.97 -1.45V-3.04Q10.97 -3.12 10.92 -3.18Q10.86 -3.23 10.78 -3.23H6.15Q6.07 -3.23 6.02 -3.18Q5.96 -3.12 5.96 -3.04V-1.45Q5.96 -1.37 6.02 -1.31Q6.07 -1.25 6.15 -1.25ZM6.15 -4.38H10.78Q10.86 -4.38 10.92 -4.44Q10.97 -4.50 10.97 -4.58V-6.10Q10.97 -6.18 10.92 -6.24Q10.86 -6.30 10.78 -6.30H6.15Q6.07 -6.30 6.02 -6.24Q5.96 -6.18 5.96 -6.10V-4.58Q5.96 -4.50 6.02 -4.44Q6.07 -4.38 6.15 -4.38Z M13.43 0.00V-1.25H14.68V0.00Z M17.61 0.00V-5.81L16.88 -4.93H15.23L17.44 -7.56H18.87V0.00Z M20.74 0.00V-1.41L27.93 -7.51L28.27 -7.56V-6.16L21.11 -0.07ZM21.18 -3.99Q20.79 -3.99 20.49 -4.17Q20.18 -4.35 20.00 -4.66Q19.82 -4.96 19.82 -5.35V-6.16Q19.82 -6.55 20.00 -6.86Q20.18 -7.16 20.49 -7.34Q20.79 -7.52 21.18 -7.52H22.10Q22.49 -7.52 22.79 -7.34Q23.10 -7.16 23.28 -6.86Q23.46 -6.55 23.46 -6.16V-5.35Q23.46 -4.96 23.28 -4.66Q23.10 -4.35 22.79 -4.17Q22.49 -3.99 22.10 -3.99H21.18ZM21.00 -4.99H22.27Q22.35 -4.99 22.40 -5.05Q22.46 -5.10 22.46 -5.18V-6.33Q22.46 -6.41 22.40 -6.46Q22.35 -6.52 22.27 -6.52H21.00Q20.92 -6.52 20.87 -6.46Q20.82 -6.41 20.82 -6.33V-5.18Q20.82 -5.10 20.87 -5.05Q20.92 -4.99 21.00 -4.99ZM26.71 -0.04Q26.32 -0.04 26.02 -0.22Q25.71 -0.40 25.53 -0.71Q25.36 -1.01 25.36 -1.40V-2.22Q25.36 -2.60 25.53 -2.91Q25.71 -3.21 26.02 -3.39Q26.32 -3.57 26.71 -3.57H27.63Q28.01 -3.57 28.32 -3.39Q28.62 -3.21 28.80 -2.91Q28.98 -2.60 28.98 -2.22V-1.40Q28.98 -1.01 28.80 -0.71Q28.62 -0.40 28.32 -0.22Q28.01 -0.04 27.63 -0.04H26.71ZM26.53 -1.04H27.80Q27.88 -1.04 27.93 -1.09Q27.98 -1.14 27.98 -1.22V-2.39Q27.98 -2.47 27.93 -2.52Q27.88 -2.57 27.80 -2.57H26.53Q26.46 -2.57 26.40 -2.52Q26.35 -2.47 26.35 -2.39V-1.22Q26.35 -1.14 26.40 -1.09Q26.46 -1.04 26.53 -1.04Z" fill="#E879F9"/></g>
<circle cx="205" cy="117" r="5" fill="#7355dd"/>
<g transform="translate(217.00,121.00)"><path d="M3.50 0.11Q2.71 0.11 2.13 -0.18Q1.55 -0.48 1.23 -1.03Q0.92 -1.58 0.92 -2.33V-6.06Q0.92 -6.82 1.23 -7.37Q1.55 -7.92 2.13 -8.21Q2.71 -8.51 3.50 -8.51Q4.28 -8.51 4.86 -8.21Q5.43 -7.91 5.75 -7.36Q6.06 -6.82 6.06 -6.06H4.82Q4.82 -6.71 4.47 -7.06Q4.12 -7.41 3.50 -7.41Q2.87 -7.41 2.51 -7.06Q2.16 -6.72 2.16 -6.07V-2.33Q2.16 -1.69 2.51 -1.34Q2.87 -0.99 3.50 -0.99Q4.12 -0.99 4.47 -1.34Q4.82 -1.69 4.82 -2.33H6.06Q6.06 -1.59 5.75 -1.04Q5.43 -0.49 4.86 -0.19Q4.28 0.11 3.50 0.11Z M7.81 0.00 8.21 -2.20H7.25V-3.06H8.36L8.77 -5.33H7.64V-6.20H8.92L9.32 -8.39H10.25L9.85 -6.20H11.57L11.96 -8.39H12.89L12.49 -6.20H13.45V-5.33H12.34L11.93 -3.06H13.06V-2.20H11.78L11.38 0.00H10.45L10.85 -2.20H9.13L8.74 0.00ZM9.29 -3.06H11.01L11.41 -5.33H9.69Z" fill="#C4B5FD" fill-opacity="0.92"/></g>
<g transform="translate(323.71,121.00)"><path d="M2.40 0.00V-5.81L1.67 -4.93H0.01L2.22 -7.56H3.66V0.00Z M6.11 0.00Q5.72 0.00 5.40 -0.21Q5.08 -0.41 4.89 -0.75Q4.70 -1.08 4.70 -1.46V-6.13Q4.70 -6.52 4.89 -6.84Q5.08 -7.17 5.40 -7.36Q5.72 -7.56 6.11 -7.56H10.82Q11.20 -7.56 11.52 -7.36Q11.84 -7.17 12.03 -6.84Q12.23 -6.52 12.23 -6.13V-1.46Q12.23 -1.08 12.03 -0.75Q11.84 -0.41 11.52 -0.21Q11.20 0.00 10.82 0.00H6.11ZM6.46 -1.31H10.78Q10.86 -1.31 10.92 -1.37Q10.97 -1.42 10.97 -1.50V-5.06ZM5.96 -2.53 10.46 -6.28H6.15Q6.07 -6.28 6.02 -6.22Q5.96 -6.16 5.96 -6.09Z M13.43 0.00V-1.25H14.68V0.00Z M20.29 0.00V-6.12Q20.29 -6.20 20.23 -6.25Q20.17 -6.31 20.09 -6.31H15.25V-7.57H20.14Q20.52 -7.57 20.84 -7.38Q21.16 -7.19 21.35 -6.87Q21.54 -6.56 21.54 -6.16V0.00Z M23.57 0.00V-1.41L30.75 -7.51L31.09 -7.56V-6.16L23.93 -0.07ZM24.01 -3.99Q23.62 -3.99 23.31 -4.17Q23.01 -4.35 22.83 -4.66Q22.65 -4.96 22.65 -5.35V-6.16Q22.65 -6.55 22.83 -6.86Q23.01 -7.16 23.31 -7.34Q23.62 -7.52 24.01 -7.52H24.92Q25.31 -7.52 25.62 -7.34Q25.92 -7.16 26.10 -6.86Q26.28 -6.55 26.28 -6.16V-5.35Q26.28 -4.96 26.10 -4.66Q25.92 -4.35 25.62 -4.17Q25.31 -3.99 24.92 -3.99H24.01ZM23.83 -4.99H25.10Q25.18 -4.99 25.23 -5.05Q25.28 -5.10 25.28 -5.18V-6.33Q25.28 -6.41 25.23 -6.46Q25.18 -6.52 25.10 -6.52H23.83Q23.75 -6.52 23.70 -6.46Q23.64 -6.41 23.64 -6.33V-5.18Q23.64 -5.10 23.70 -5.05Q23.75 -4.99 23.83 -4.99ZM29.53 -0.04Q29.15 -0.04 28.84 -0.22Q28.53 -0.40 28.36 -0.71Q28.18 -1.01 28.18 -1.40V-2.22Q28.18 -2.60 28.36 -2.91Q28.53 -3.21 28.84 -3.39Q29.15 -3.57 29.53 -3.57H30.45Q30.83 -3.57 31.14 -3.39Q31.45 -3.21 31.62 -2.91Q31.80 -2.60 31.80 -2.22V-1.40Q31.80 -1.01 31.62 -0.71Q31.45 -0.40 31.14 -0.22Q30.83 -0.04 30.45 -0.04H29.53ZM29.36 -1.04H30.63Q30.70 -1.04 30.76 -1.09Q30.81 -1.14 30.81 -1.22V-2.39Q30.81 -2.47 30.76 -2.52Q30.70 -2.57 30.63 -2.57H29.36Q29.28 -2.57 29.23 -2.52Q29.18 -2.47 29.18 -2.39V-1.22Q29.18 -1.14 29.23 -1.09Q29.28 -1.04 29.36 -1.04Z" fill="#E879F9"/></g>
<circle cx="27" cy="142" r="5" fill="#e34c26"/>
<g transform="translate(39.00,146.00)"><path d="M0.98 0.00V-8.39H2.22V-4.92H4.68V-8.39H5.92V0.00H4.68V-3.77H2.22V0.00Z M9.73 0.00V-7.26H7.48V-8.40H13.22V-7.26H10.97V0.00Z M14.56 0.00V-8.39H16.09L16.93 -5.70Q17.06 -5.32 17.15 -4.97Q17.24 -4.63 17.28 -4.45Q17.32 -4.63 17.40 -4.97Q17.49 -5.32 17.60 -5.71L18.41 -8.39H19.94V0.00H18.76V-2.82Q18.76 -3.37 18.80 -4.03Q18.83 -4.69 18.88 -5.36Q18.94 -6.04 19.00 -6.65Q19.06 -7.27 19.10 -7.72L17.87 -3.65H16.66L15.40 -7.72Q15.46 -7.28 15.52 -6.69Q15.57 -6.10 15.62 -5.43Q15.67 -4.76 15.70 -4.09Q15.74 -3.41 15.74 -2.82V0.00Z M21.95 0.00V-8.39H23.20V-1.14H26.87V0.00Z" fill="#C4B5FD" fill-opacity="0.92"/></g>
<g transform="translate(152.79,146.00)"><path d="M2.01 0.00Q1.61 0.00 1.30 -0.19Q0.98 -0.39 0.79 -0.70Q0.60 -1.02 0.60 -1.40V-6.16Q0.60 -6.55 0.79 -6.87Q0.98 -7.19 1.30 -7.38Q1.61 -7.56 2.01 -7.56H6.89V-6.31H2.05Q1.97 -6.31 1.91 -6.25Q1.85 -6.19 1.85 -6.11V-4.71Q1.85 -4.63 1.91 -4.57Q1.97 -4.51 2.05 -4.51H6.71Q7.10 -4.51 7.42 -4.32Q7.74 -4.13 7.93 -3.81Q8.12 -3.49 8.12 -3.10V-1.40Q8.12 -1.02 7.93 -0.70Q7.74 -0.39 7.42 -0.19Q7.10 0.00 6.71 0.00H2.01ZM2.05 -1.25H6.67Q6.75 -1.25 6.81 -1.31Q6.87 -1.37 6.87 -1.45V-3.05Q6.87 -3.13 6.81 -3.19Q6.75 -3.25 6.67 -3.25H1.85V-1.45Q1.85 -1.37 1.91 -1.31Q1.97 -1.25 2.05 -1.25Z M9.18 0.00V-1.25H10.43V0.00Z M13.36 0.00V-5.81L12.63 -4.93H10.97L13.18 -7.56H14.62V0.00Z M16.49 0.00V-1.41L23.68 -7.51L24.02 -7.56V-6.16L16.86 -0.07ZM16.93 -3.99Q16.54 -3.99 16.23 -4.17Q15.93 -4.35 15.75 -4.66Q15.57 -4.96 15.57 -5.35V-6.16Q15.57 -6.55 15.75 -6.86Q15.93 -7.16 16.23 -7.34Q16.54 -7.52 16.93 -7.52H17.85Q18.24 -7.52 18.54 -7.34Q18.85 -7.16 19.02 -6.86Q19.20 -6.55 19.20 -6.16V-5.35Q19.20 -4.96 19.02 -4.66Q18.85 -4.35 18.54 -4.17Q18.24 -3.99 17.85 -3.99H16.93ZM16.75 -4.99H18.02Q18.10 -4.99 18.15 -5.05Q18.20 -5.10 18.20 -5.18V-6.33Q18.20 -6.41 18.15 -6.46Q18.10 -6.52 18.02 -6.52H16.75Q16.67 -6.52 16.62 -6.46Q16.57 -6.41 16.57 -6.33V-5.18Q16.57 -5.10 16.62 -5.05Q16.67 -4.99 16.75 -4.99ZM22.45 -0.04Q22.07 -0.04 21.76 -0.22Q21.46 -0.40 21.28 -0.71Q21.10 -1.01 21.10 -1.40V-2.22Q21.10 -2.60 21.28 -2.91Q21.46 -3.21 21.76 -3.39Q22.07 -3.57 22.45 -3.57H23.37Q23.76 -3.57 24.06 -3.39Q24.37 -3.21 24.55 -2.91Q24.73 -2.60 24.73 -2.22V-1.40Q24.73 -1.01 24.55 -0.71Q24.37 -0.40 24.06 -0.22Q23.76 -0.04 23.37 -0.04H22.45ZM22.28 -1.04H23.55Q23.63 -1.04 23.68 -1.09Q23.73 -1.14 23.73 -1.22V-2.39Q23.73 -2.47 23.68 -2.52Q23.63 -2.57 23.55 -2.57H22.28Q22.20 -2.57 22.15 -2.52Q22.10 -2.47 22.10 -2.39V-1.22Q22.10 -1.14 22.15 -1.09Q22.20 -1.04 22.28 -1.04Z" fill="#E879F9"/></g>
<circle cx="205" cy="142" r="5" fill="#663399"/>
<g transform="translate(217.00,146.00)"><path d="M3.50 0.11Q2.71 0.11 2.13 -0.18Q1.55 -0.48 1.23 -1.03Q0.92 -1.58 0.92 -2.33V-6.06Q0.92 -6.82 1.23 -7.37Q1.55 -7.92 2.13 -8.21Q2.71 -8.51 3.50 -8.51Q4.28 -8.51 4.86 -8.21Q5.43 -7.91 5.75 -7.36Q6.06 -6.82 6.06 -6.06H4.82Q4.82 -6.71 4.47 -7.06Q4.12 -7.41 3.50 -7.41Q2.87 -7.41 2.51 -7.06Q2.16 -6.72 2.16 -6.07V-2.33Q2.16 -1.69 2.51 -1.34Q2.87 -0.99 3.50 -0.99Q4.12 -0.99 4.47 -1.34Q4.82 -1.69 4.82 -2.33H6.06Q6.06 -1.59 5.75 -1.04Q5.43 -0.49 4.86 -0.19Q4.28 0.11 3.50 0.11Z M10.38 0.11Q9.54 0.11 8.93 -0.17Q8.31 -0.45 7.98 -0.98Q7.65 -1.50 7.64 -2.22H8.88Q8.88 -1.65 9.28 -1.32Q9.68 -0.99 10.39 -0.99Q11.06 -0.99 11.44 -1.31Q11.82 -1.63 11.82 -2.20Q11.82 -2.66 11.56 -3.01Q11.30 -3.35 10.82 -3.49L9.77 -3.80Q8.84 -4.06 8.34 -4.70Q7.84 -5.34 7.84 -6.22Q7.84 -6.92 8.15 -7.43Q8.47 -7.94 9.04 -8.23Q9.61 -8.52 10.39 -8.52Q11.55 -8.52 12.24 -7.90Q12.94 -7.27 12.94 -6.23H11.70Q11.70 -6.79 11.36 -7.10Q11.01 -7.42 10.38 -7.42Q9.76 -7.42 9.42 -7.12Q9.08 -6.83 9.08 -6.31Q9.08 -5.83 9.34 -5.49Q9.59 -5.15 10.07 -5.01L11.15 -4.69Q12.07 -4.43 12.56 -3.78Q13.06 -3.14 13.06 -2.24Q13.06 -1.54 12.72 -1.01Q12.39 -0.47 11.79 -0.18Q11.19 0.11 10.38 0.11Z M17.28 0.11Q16.44 0.11 15.83 -0.17Q15.21 -0.45 14.88 -0.98Q14.55 -1.50 14.54 -2.22H15.78Q15.78 -1.65 16.18 -1.32Q16.58 -0.99 17.29 -0.99Q17.96 -0.99 18.34 -1.31Q18.72 -1.63 18.72 -2.20Q18.72 -2.66 18.46 -3.01Q18.20 -3.35 17.72 -3.49L16.67 -3.80Q15.74 -4.06 15.24 -4.70Q14.74 -5.34 14.74 -6.22Q14.74 -6.92 15.05 -7.43Q15.37 -7.94 15.94 -8.23Q16.51 -8.52 17.29 -8.52Q18.45 -8.52 19.14 -7.90Q19.84 -7.27 19.84 -6.23H18.60Q18.60 -6.79 18.26 -7.10Q17.91 -7.42 17.28 -7.42Q16.66 -7.42 16.32 -7.12Q15.98 -6.83 15.98 -6.31Q15.98 -5.83 16.24 -5.49Q16.49 -5.15 16.97 -5.01L18.05 -4.69Q18.97 -4.43 19.46 -3.78Q19.96 -3.14 19.96 -2.24Q19.96 -1.54 19.62 -1.01Q19.29 -0.47 18.69 -0.18Q18.09 0.11 17.28 0.11Z" fill="#C4B5FD" fill-opacity="0.92"/></g>
<g transform="translate(326.07,146.00)"><path d="M1.97 0.00Q1.58 0.00 1.26 -0.19Q0.94 -0.39 0.75 -0.70Q0.56 -1.02 0.56 -1.40V-1.79H1.82V-1.45Q1.82 -1.37 1.87 -1.31Q1.93 -1.25 2.01 -1.25H6.64Q6.72 -1.25 6.77 -1.31Q6.83 -1.37 6.83 -1.45V-3.01Q6.83 -3.09 6.77 -3.15Q6.72 -3.21 6.64 -3.21H1.89V-4.46H6.33Q6.41 -4.46 6.46 -4.52Q6.52 -4.57 6.52 -4.65V-6.11Q6.52 -6.19 6.46 -6.25Q6.41 -6.31 6.33 -6.31H2.01Q1.93 -6.31 1.87 -6.25Q1.82 -6.19 1.82 -6.11V-5.67H0.56V-6.16Q0.56 -6.55 0.75 -6.87Q0.94 -7.18 1.26 -7.37Q1.58 -7.56 1.97 -7.56H6.37Q6.77 -7.56 7.08 -7.38Q7.40 -7.19 7.59 -6.87Q7.78 -6.55 7.78 -6.16V-4.61Q7.78 -4.48 7.75 -4.34Q7.72 -4.21 7.68 -4.10Q7.89 -3.88 7.99 -3.60Q8.08 -3.33 8.08 -3.06V-1.40Q8.08 -1.02 7.89 -0.70Q7.70 -0.39 7.38 -0.19Q7.06 0.00 6.68 0.00H1.97Z M9.24 0.00V-1.25H10.49V0.00Z M13.03 0.00Q12.64 0.00 12.32 -0.19Q12.00 -0.39 11.81 -0.70Q11.62 -1.02 11.62 -1.40V-3.09Q11.62 -3.28 11.69 -3.48Q11.76 -3.68 11.87 -3.86Q11.76 -4.05 11.69 -4.25Q11.62 -4.45 11.62 -4.65V-6.16Q11.62 -6.55 11.81 -6.87Q12.00 -7.19 12.32 -7.38Q12.64 -7.56 13.03 -7.56H17.74Q18.07 -7.56 18.37 -7.41Q18.66 -7.25 18.87 -6.98Q19.08 -6.72 19.15 -6.40V-4.65Q19.15 -4.25 18.90 -3.86Q19.15 -3.50 19.15 -3.09V-1.40Q19.15 -1.02 18.95 -0.70Q18.76 -0.39 18.44 -0.19Q18.12 0.00 17.74 0.00H13.03ZM13.07 -1.25H17.70Q17.78 -1.25 17.84 -1.31Q17.89 -1.37 17.89 -1.45V-3.04Q17.89 -3.12 17.84 -3.18Q17.78 -3.23 17.70 -3.23H13.07Q12.99 -3.23 12.93 -3.18Q12.88 -3.12 12.88 -3.04V-1.45Q12.88 -1.37 12.93 -1.31Q12.99 -1.25 13.07 -1.25ZM13.07 -4.38H17.70Q17.78 -4.38 17.84 -4.44Q17.89 -4.50 17.89 -4.58V-6.10Q17.89 -6.18 17.84 -6.24Q17.78 -6.30 17.70 -6.30H13.07Q12.99 -6.30 12.93 -6.24Q12.88 -6.18 12.88 -6.10V-4.58Q12.88 -4.50 12.93 -4.44Q12.99 -4.38 13.07 -4.38Z M21.20 0.00V-1.41L28.39 -7.51L28.73 -7.56V-6.16L21.57 -0.07ZM21.64 -3.99Q21.25 -3.99 20.95 -4.17Q20.64 -4.35 20.46 -4.66Q20.29 -4.96 20.29 -5.35V-6.16Q20.29 -6.55 20.46 -6.86Q20.64 -7.16 20.95 -7.34Q21.25 -7.52 21.64 -7.52H22.56Q22.95 -7.52 23.26 -7.34Q23.56 -7.16 23.74 -6.86Q23.92 -6.55 23.92 -6.16V-5.35Q23.92 -4.96 23.74 -4.66Q23.56 -4.35 23.26 -4.17Q22.95 -3.99 22.56 -3.99H21.64ZM21.46 -4.99H22.74Q22.81 -4.99 22.87 -5.05Q22.92 -5.10 22.92 -5.18V-6.33Q22.92 -6.41 22.87 -6.46Q22.81 -6.52 22.74 -6.52H21.46Q21.39 -6.52 21.33 -6.46Q21.28 -6.41 21.28 -6.33V-5.18Q21.28 -5.10 21.33 -5.05Q21.39 -4.99 21.46 -4.99ZM27.17 -0.04Q26.78 -0.04 26.48 -0.22Q26.17 -0.40 26.00 -0.71Q25.82 -1.01 25.82 -1.40V-2.22Q25.82 -2.60 26.00 -2.91Q26.17 -3.21 26.48 -3.39Q26.78 -3.57 27.17 -3.57H28.09Q28.47 -3.57 28.78 -3.39Q29.08 -3.21 29.26 -2.91Q29.44 -2.60 29.44 -2.22V-1.40Q29.44 -1.01 29.26 -0.71Q29.08 -0.40 28.78 -0.22Q28.47 -0.04 28.09 -0.04H27.17ZM27.00 -1.04H28.26Q28.34 -1.04 28.39 -1.09Q28.45 -1.14 28.45 -1.22V-2.39Q28.45 -2.47 28.39 -2.52Q28.34 -2.57 28.26 -2.57H27.00Q26.92 -2.57 26.87 -2.52Q26.81 -2.47 26.81 -2.39V-1.22Q26.81 -1.14 26.87 -1.09Q26.92 -1.04 27.00 -1.04Z" fill="#E879F9"/></g>
<circle cx="27" cy="167" r="5" fill="#f1e05a"/>
<g transform="translate(39.00,171.00)"><path d="M3.10 0.12Q1.86 0.12 1.15 -0.57Q0.43 -1.26 0.43 -2.45H1.67Q1.67 -1.75 2.05 -1.36Q2.43 -0.97 3.10 -0.97Q3.78 -0.97 4.16 -1.36Q4.54 -1.74 4.54 -2.44V-7.25H2.56V-8.39H5.78V-2.44Q5.78 -1.26 5.06 -0.57Q4.34 0.12 3.10 0.12Z M9.72 0.11Q8.73 0.11 8.16 -0.40Q7.59 -0.91 7.59 -1.79Q7.59 -2.70 8.19 -3.20Q8.79 -3.71 9.85 -3.71H11.61V-4.30Q11.61 -4.82 11.29 -5.10Q10.97 -5.39 10.38 -5.39Q9.87 -5.39 9.53 -5.17Q9.18 -4.95 9.12 -4.57H7.90Q8.00 -5.43 8.69 -5.93Q9.37 -6.44 10.42 -6.44Q11.54 -6.44 12.20 -5.87Q12.85 -5.30 12.85 -4.32V0.00H11.65V-1.16H11.44L11.65 -1.40Q11.65 -0.70 11.12 -0.29Q10.59 0.11 9.72 0.11ZM10.09 -0.84Q10.76 -0.84 11.18 -1.17Q11.61 -1.51 11.61 -2.05V-2.88H9.88Q9.40 -2.88 9.12 -2.61Q8.83 -2.34 8.83 -1.89Q8.83 -1.40 9.17 -1.12Q9.50 -0.84 10.09 -0.84Z M16.44 0.00 14.34 -6.33H15.61L16.91 -2.28Q17.03 -1.92 17.13 -1.56Q17.23 -1.20 17.27 -0.99Q17.33 -1.20 17.43 -1.56Q17.53 -1.92 17.63 -2.28L18.90 -6.33H20.16L18.07 0.00Z M23.52 0.11Q22.53 0.11 21.96 -0.40Q21.39 -0.91 21.39 -1.79Q21.39 -2.70 21.99 -3.20Q22.59 -3.71 23.65 -3.71H25.41V-4.30Q25.41 -4.82 25.09 -5.10Q24.77 -5.39 24.18 -5.39Q23.67 -5.39 23.33 -5.17Q22.98 -4.95 22.92 -4.57H21.70Q21.80 -5.43 22.49 -5.93Q23.17 -6.44 24.22 -6.44Q25.34 -6.44 26.00 -5.87Q26.65 -5.30 26.65 -4.32V0.00H25.45V-1.16H25.24L25.45 -1.40Q25.45 -0.70 24.92 -0.29Q24.39 0.11 23.52 0.11ZM23.89 -0.84Q24.56 -0.84 24.98 -1.17Q25.41 -1.51 25.41 -2.05V-2.88H23.68Q23.20 -2.88 22.92 -2.61Q22.63 -2.34 22.63 -1.89Q22.63 -1.40 22.97 -1.12Q23.30 -0.84 23.89 -0.84Z M31.08 0.11Q30.24 0.11 29.63 -0.17Q29.01 -0.45 28.68 -0.98Q28.35 -1.50 28.34 -2.22H29.58Q29.58 -1.65 29.98 -1.32Q30.38 -0.99 31.09 -0.99Q31.76 -0.99 32.14 -1.31Q32.52 -1.63 32.52 -2.20Q32.52 -2.66 32.26 -3.01Q32.00 -3.35 31.52 -3.49L30.47 -3.80Q29.54 -4.06 29.04 -4.70Q28.54 -5.34 28.54 -6.22Q28.54 -6.92 28.85 -7.43Q29.17 -7.94 29.74 -8.23Q30.31 -8.52 31.09 -8.52Q32.25 -8.52 32.94 -7.90Q33.64 -7.27 33.64 -6.23H32.40Q32.40 -6.79 32.06 -7.10Q31.71 -7.42 31.08 -7.42Q30.46 -7.42 30.12 -7.12Q29.78 -6.83 29.78 -6.31Q29.78 -5.83 30.04 -5.49Q30.29 -5.15 30.77 -5.01L31.85 -4.69Q32.77 -4.43 33.26 -3.78Q33.76 -3.14 33.76 -2.24Q33.76 -1.54 33.42 -1.01Q33.09 -0.47 32.49 -0.18Q31.89 0.11 31.08 0.11Z M37.99 0.11Q37.21 0.11 36.62 -0.18Q36.03 -0.48 35.71 -1.03Q35.39 -1.58 35.39 -2.33V-3.99Q35.39 -4.75 35.71 -5.30Q36.03 -5.85 36.62 -6.14Q37.21 -6.44 37.99 -6.44Q39.13 -6.44 39.82 -5.84Q40.52 -5.24 40.55 -4.20H39.31Q39.28 -4.75 38.93 -5.05Q38.58 -5.35 37.99 -5.35Q37.36 -5.35 37.00 -5.00Q36.63 -4.65 36.63 -4.00V-2.33Q36.63 -1.69 37.00 -1.33Q37.36 -0.98 37.99 -0.98Q38.58 -0.98 38.93 -1.28Q39.28 -1.58 39.31 -2.12H40.55Q40.52 -1.09 39.82 -0.49Q39.13 0.11 37.99 0.11Z M42.58 0.00V-6.33H43.77V-5.12H44.07L43.69 -4.37Q43.69 -5.40 44.14 -5.92Q44.59 -6.44 45.47 -6.44Q46.49 -6.44 47.08 -5.81Q47.67 -5.18 47.67 -4.09V-3.67H46.39V-3.99Q46.39 -4.67 46.05 -5.03Q45.71 -5.40 45.10 -5.40Q44.50 -5.40 44.16 -5.03Q43.82 -4.66 43.82 -3.99V0.00Z M49.23 0.00V-1.13H51.45V-5.20H49.51V-6.33H52.66V-1.13H54.70V0.00ZM51.94 -7.42Q51.53 -7.42 51.30 -7.63Q51.06 -7.84 51.06 -8.20Q51.06 -8.56 51.30 -8.78Q51.53 -8.99 51.94 -8.99Q52.35 -8.99 52.58 -8.78Q52.82 -8.56 52.82 -8.20Q52.82 -7.84 52.58 -7.63Q52.35 -7.42 51.94 -7.42Z M56.17 2.07V-6.33H57.39V-5.12H57.66L57.39 -4.83Q57.39 -5.58 57.86 -6.01Q58.33 -6.44 59.11 -6.44Q60.07 -6.44 60.64 -5.80Q61.21 -5.16 61.21 -4.06V-2.28Q61.21 -1.55 60.95 -1.01Q60.69 -0.47 60.22 -0.18Q59.76 0.11 59.11 0.11Q58.34 0.11 57.87 -0.32Q57.39 -0.75 57.39 -1.50L57.66 -1.21H57.38L57.41 0.26V2.07ZM58.68 -0.96Q59.29 -0.96 59.63 -1.32Q59.97 -1.67 59.97 -2.33V-3.99Q59.97 -4.66 59.63 -5.01Q59.29 -5.36 58.68 -5.36Q58.10 -5.36 57.76 -5.00Q57.41 -4.64 57.41 -3.99V-2.33Q57.41 -1.69 57.76 -1.32Q58.10 -0.96 58.68 -0.96Z M66.24 0.00Q65.38 0.00 64.90 -0.47Q64.41 -0.94 64.41 -1.79V-5.20H62.66V-6.33H64.41V-8.11H65.65V-6.33H68.13V-5.20H65.65V-1.79Q65.65 -1.13 66.29 -1.13H68.02V0.00Z" fill="#C4B5FD" fill-opacity="0.92"/></g>
<g transform="translate(148.12,171.00)"><path d="M1.97 0.00Q1.58 0.00 1.26 -0.19Q0.94 -0.39 0.75 -0.70Q0.56 -1.02 0.56 -1.40V-1.79H1.82V-1.45Q1.82 -1.37 1.87 -1.31Q1.93 -1.25 2.01 -1.25H6.64Q6.72 -1.25 6.77 -1.31Q6.83 -1.37 6.83 -1.45V-3.01Q6.83 -3.09 6.77 -3.15Q6.72 -3.21 6.64 -3.21H1.89V-4.46H6.33Q6.41 -4.46 6.46 -4.52Q6.52 -4.57 6.52 -4.65V-6.11Q6.52 -6.19 6.46 -6.25Q6.41 -6.31 6.33 -6.31H2.01Q1.93 -6.31 1.87 -6.25Q1.82 -6.19 1.82 -6.11V-5.67H0.56V-6.16Q0.56 -6.55 0.75 -6.87Q0.94 -7.18 1.26 -7.37Q1.58 -7.56 1.97 -7.56H6.37Q6.77 -7.56 7.08 -7.38Q7.40 -7.19 7.59 -6.87Q7.78 -6.55 7.78 -6.16V-4.61Q7.78 -4.48 7.75 -4.34Q7.72 -4.21 7.68 -4.10Q7.89 -3.88 7.99 -3.60Q8.08 -3.33 8.08 -3.06V-1.40Q8.08 -1.02 7.89 -0.70Q7.70 -0.39 7.38 -0.19Q7.06 0.00 6.68 0.00H1.97Z M9.24 0.00V-1.25H10.49V0.00Z M13.03 0.00Q12.64 0.00 12.32 -0.19Q12.00 -0.39 11.81 -0.70Q11.62 -1.02 11.62 -1.40V-1.86H12.88V-1.45Q12.88 -1.37 12.93 -1.31Q12.99 -1.25 13.07 -1.25H17.70Q17.78 -1.25 17.84 -1.31Q17.89 -1.37 17.89 -1.45V-3.04Q17.89 -3.12 17.84 -3.18Q17.78 -3.23 17.70 -3.23H11.62V-7.56H19.15V-6.31H13.07Q12.99 -6.31 12.93 -6.25Q12.88 -6.19 12.88 -6.11V-4.69Q12.88 -4.61 12.93 -4.55Q12.99 -4.49 13.07 -4.49H17.74Q18.12 -4.49 18.44 -4.31Q18.76 -4.12 18.95 -3.80Q19.15 -3.48 19.15 -3.09V-1.40Q19.15 -1.02 18.95 -0.70Q18.76 -0.39 18.44 -0.19Q18.12 0.00 17.74 0.00H13.03Z M21.16 0.00V-1.41L28.35 -7.51L28.69 -7.56V-6.16L21.53 -0.07ZM21.60 -3.99Q21.21 -3.99 20.91 -4.17Q20.60 -4.35 20.42 -4.66Q20.24 -4.96 20.24 -5.35V-6.16Q20.24 -6.55 20.42 -6.86Q20.60 -7.16 20.91 -7.34Q21.21 -7.52 21.60 -7.52H22.52Q22.91 -7.52 23.21 -7.34Q23.52 -7.16 23.70 -6.86Q23.88 -6.55 23.88 -6.16V-5.35Q23.88 -4.96 23.70 -4.66Q23.52 -4.35 23.21 -4.17Q22.91 -3.99 22.52 -3.99H21.60ZM21.42 -4.99H22.69Q22.77 -4.99 22.82 -5.05Q22.88 -5.10 22.88 -5.18V-6.33Q22.88 -6.41 22.82 -6.46Q22.77 -6.52 22.69 -6.52H21.42Q21.34 -6.52 21.29 -6.46Q21.24 -6.41 21.24 -6.33V-5.18Q21.24 -5.10 21.29 -5.05Q21.34 -4.99 21.42 -4.99ZM27.13 -0.04Q26.74 -0.04 26.44 -0.22Q26.13 -0.40 25.95 -0.71Q25.78 -1.01 25.78 -1.40V-2.22Q25.78 -2.60 25.95 -2.91Q26.13 -3.21 26.44 -3.39Q26.74 -3.57 27.13 -3.57H28.05Q28.43 -3.57 28.74 -3.39Q29.04 -3.21 29.22 -2.91Q29.40 -2.60 29.40 -2.22V-1.40Q29.40 -1.01 29.22 -0.71Q29.04 -0.40 28.74 -0.22Q28.43 -0.04 28.05 -0.04H27.13ZM26.95 -1.04H28.22Q28.30 -1.04 28.35 -1.09Q28.40 -1.14 28.40 -1.22V-2.39Q28.40 -2.47 28.35 -2.52Q28.30 -2.57 28.22 -2.57H26.95Q26.88 -2.57 26.82 -2.52Q26.77 -2.47 26.77 -2.39V-1.22Q26.77 -1.14 26.82 -1.09Q26.88 -1.04 26.95 -1.04Z" fill="#E879F9"/></g>
</svg>